<svg width="11" height="12" viewBox="0 0 11 12" fill="none" xmlns="http://www.w3.org/2000/svg">
<path d="M5.5 3.1641C5.10851 3.1641 4.74089 3.23572 4.39714 3.37895C4.05338 3.53173 3.75499 3.73463 3.50195 3.98767C3.24891 4.24071 3.04601 4.5391 2.89323 4.88285C2.75 5.2266 2.67839 5.59422 2.67839 5.98572C2.67839 6.37721 2.75 6.74483 2.89323 7.08858C3.04601 7.43233 3.24891 7.73072 3.50195 7.98376C3.75499 8.2368 4.05338 8.43971 4.39714 8.59249C4.74089 8.73572 5.10851 8.80733 5.5 8.80733C5.8915 8.80733 6.25911 8.73572 6.60286 8.59249C6.94662 8.43971 7.24501 8.2368 7.49805 7.98376C7.75109 7.73072 7.95399 7.43233 8.10677 7.08858C8.25 6.74483 8.32162 6.37721 8.32162 5.98572C8.32162 5.59422 8.25 5.2266 8.10677 4.88285C7.95399 4.5391 7.75109 4.24071 7.49805 3.98767C7.24501 3.73463 6.94662 3.53173 6.60286 3.37895C6.25911 3.23572 5.8915 3.1641 5.5 3.1641ZM5.5 7.81905C4.99392 7.81905 4.56185 7.64002 4.20378 7.28194C3.8457 6.92387 3.66667 6.4918 3.66667 5.98572C3.66667 5.47964 3.8457 5.04757 4.20378 4.68949C4.56185 4.33142 4.99392 4.15238 5.5 4.15238C6.00608 4.15238 6.43815 4.33142 6.79622 4.68949C7.1543 5.04757 7.33333 5.47964 7.33333 5.98572C7.33333 6.4918 7.1543 6.92387 6.79622 7.28194C6.43815 7.64002 6.00608 7.81905 5.5 7.81905ZM9.09505 3.04952C9.09505 3.24049 9.0306 3.39804 8.90169 3.52218C8.77279 3.64631 8.61762 3.70837 8.4362 3.70837C8.25477 3.70837 8.09961 3.64631 7.9707 3.52218C7.8418 3.39804 7.77734 3.24049 7.77734 3.04952C7.77734 2.8681 7.8418 2.71532 7.9707 2.59119C8.09961 2.46705 8.25477 2.40499 8.4362 2.40499C8.61762 2.40499 8.77279 2.46705 8.90169 2.59119C9.0306 2.71532 9.09505 2.8681 9.09505 3.04952ZM10.7135 2.39067C10.5703 2.01827 10.3602 1.69362 10.0833 1.41671C9.80642 1.1398 9.48655 0.929729 9.1237 0.786499L9.10938 0.772176C8.90885 0.695787 8.6964 0.636108 8.47201 0.59314C8.24761 0.550171 8.01606 0.528687 7.77734 0.528687H7.76302C7.47656 0.509589 7.21398 0.497654 6.97526 0.492879C6.73654 0.488105 6.2448 0.485718 5.5 0.485718C4.7552 0.485718 4.26346 0.488105 4.02474 0.492879C3.78602 0.497654 3.52344 0.509589 3.23698 0.528687C2.99826 0.528687 2.76432 0.552558 2.53516 0.600301C2.30599 0.648044 2.08637 0.71011 1.8763 0.786499L1.90495 0.772176C1.53255 0.924955 1.2079 1.1398 0.93099 1.41671C0.654078 1.69362 0.444011 2.00872 0.300781 2.36202L0.286458 2.39067C0.210069 2.58164 0.150391 2.79171 0.107422 3.02087C0.0644531 3.25004 0.0381943 3.48398 0.0286458 3.7227C0.0190974 4.01871 0.0119359 4.28368 0.00716146 4.51762C0.002387 4.75156 0 5.24092 0 5.98572C0 6.73051 0.002387 7.22226 0.00716146 7.46098C0.0119359 7.69969 0.0190974 7.96705 0.0286458 8.26306C0.0381943 8.49223 0.0644531 8.71662 0.107422 8.93624C0.150391 9.15586 0.210069 9.37547 0.286458 9.59509C0.439237 9.96749 0.654078 10.2921 0.93099 10.5691C1.2079 10.846 1.523 11.056 1.8763 11.1993H1.90495C2.09592 11.2852 2.3036 11.352 2.52799 11.3998C2.75239 11.4475 2.98394 11.4714 3.22266 11.4714H3.23698C3.53299 11.4905 3.79796 11.5024 4.0319 11.5072C4.26584 11.512 4.7552 11.5144 5.5 11.5144C6.2448 11.5144 6.73654 11.512 6.97526 11.5072C7.21398 11.5024 7.48134 11.4905 7.77734 11.4714C8.01606 11.4714 8.25 11.4475 8.47917 11.3998C8.70833 11.352 8.92795 11.29 9.13802 11.2136L9.10938 11.2279C9.48177 11.0751 9.80642 10.8603 10.0833 10.5834C10.3602 10.3065 10.5703 9.99136 10.7135 9.63806V9.60942C10.7995 9.39934 10.8639 9.18212 10.9069 8.95772C10.9499 8.73333 10.9714 8.50655 10.9714 8.27738C10.9809 7.98138 10.9881 7.7164 10.9928 7.48246C10.9976 7.24852 11 6.75916 11 6.01436C11 5.26002 11 4.76588 11 4.53194C11 4.298 10.9905 4.03303 10.9714 3.73702C10.9714 3.4983 10.9475 3.26198 10.8997 3.02804C10.852 2.79409 10.7852 2.57209 10.6992 2.36202L10.7135 2.39067ZM9.96875 8.20577C9.96875 8.39674 9.95204 8.58055 9.91862 8.7572C9.8852 8.93385 9.83507 9.10334 9.76823 9.26567L9.78255 9.23702C9.68707 9.48528 9.54861 9.69774 9.36719 9.87439C9.18576 10.051 8.98047 10.1871 8.7513 10.2826H8.73698C8.5842 10.3494 8.42188 10.3972 8.25 10.4258C8.07812 10.4545 7.90148 10.4736 7.72005 10.4831C7.42404 10.4927 7.16385 10.4998 6.93945 10.5046C6.71506 10.5094 6.23047 10.5118 5.48568 10.5118C4.74088 10.5118 4.25629 10.5094 4.0319 10.5046C3.80751 10.4998 3.54731 10.4927 3.2513 10.4831C3.06033 10.4736 2.87891 10.4521 2.70703 10.4187C2.53516 10.3852 2.36806 10.3399 2.20573 10.2826H2.22005C1.98134 10.1967 1.77127 10.063 1.58984 9.88155C1.40842 9.70013 1.26997 9.49006 1.17448 9.25134V9.23702C1.11719 9.09379 1.07183 8.93624 1.03841 8.76436C1.00499 8.59249 0.988281 8.41107 0.988281 8.22009C0.969184 7.93363 0.959635 7.67582 0.959635 7.44665C0.959635 7.21749 0.959635 6.73051 0.959635 5.98572C0.959635 5.24092 0.959635 4.75634 0.959635 4.53194C0.959635 4.30755 0.969184 4.04735 0.988281 3.75134C0.988281 3.56992 1.00499 3.39088 1.03841 3.21423C1.07183 3.03758 1.12196 2.8681 1.1888 2.70577L1.17448 2.72009C1.26997 2.48138 1.40842 2.27131 1.58984 2.08988C1.77127 1.90846 1.98134 1.77001 2.22005 1.67452C2.37283 1.61723 2.53516 1.57187 2.70703 1.53845C2.87891 1.50503 3.06033 1.48832 3.2513 1.48832C3.53776 1.47877 3.79557 1.47161 4.02474 1.46684C4.25391 1.46206 4.74088 1.45968 5.48568 1.45968C6.23047 1.45968 6.71506 1.45968 6.93945 1.45968C7.16385 1.45968 7.42404 1.46922 7.72005 1.48832C7.90148 1.48832 8.07812 1.50503 8.25 1.53845C8.42188 1.57187 8.58897 1.622 8.7513 1.68884L8.73698 1.67452C8.9757 1.77001 9.18576 1.90846 9.36719 2.08988C9.54861 2.27131 9.68707 2.48138 9.78255 2.72009C9.83984 2.87287 9.8852 3.0352 9.91862 3.20707C9.95204 3.37895 9.96875 3.5556 9.96875 3.73702V3.75134C9.9783 4.0378 9.98546 4.29561 9.99023 4.52478C9.99501 4.75395 9.9974 5.24092 9.9974 5.98572C9.9974 6.73051 9.9974 7.2151 9.9974 7.43949C9.9974 7.66389 9.99262 7.91931 9.98307 8.20577H9.96875Z" fill="CurrentColor"/>
</svg>
