<svg width="7" height="12" viewBox="0 0 7 12" fill="none" xmlns="http://www.w3.org/2000/svg">
<path d="M3.5625 0.5C3.08984 0.5 2.64225 0.589517 2.21973 0.768555C1.80436 0.947592 1.44092 1.19287 1.12939 1.50439C0.817869 1.81592 0.572592 2.17936 0.393555 2.59473C0.214517 3.01725 0.125 3.46484 0.125 3.9375C0.125 4.41016 0.221679 4.92578 0.415039 5.48438C0.615561 6.04297 0.876951 6.63916 1.19922 7.27295C1.52149 7.90674 1.88672 8.57454 2.29492 9.27637C2.71029 9.98536 3.13281 10.7266 3.5625 11.5C3.99219 10.7266 4.41113 9.98536 4.81934 9.27637C5.2347 8.57454 5.60351 7.90674 5.92578 7.27295C6.24805 6.63916 6.50586 6.04297 6.69922 5.48438C6.89974 4.92578 7 4.41016 7 3.9375C7 3.46484 6.91048 3.01725 6.73145 2.59473C6.55241 2.17936 6.30713 1.81592 5.99561 1.50439C5.68408 1.19287 5.32064 0.947592 4.90527 0.768555C4.48275 0.589517 4.03516 0.5 3.5625 0.5ZM3.5625 5.3125C3.18294 5.3125 2.85889 5.17822 2.59033 4.90967C2.32178 4.64111 2.1875 4.31706 2.1875 3.9375C2.1875 3.55794 2.32178 3.23389 2.59033 2.96533C2.85889 2.69678 3.18294 2.5625 3.5625 2.5625C3.94206 2.5625 4.26611 2.69678 4.53467 2.96533C4.80322 3.23389 4.9375 3.55794 4.9375 3.9375C4.9375 4.31706 4.80322 4.64111 4.53467 4.90967C4.26611 5.17822 3.94206 5.3125 3.5625 5.3125Z" fill="CurrentColor"/>
</svg>
